<svg xmlns="http://www.w3.org/2000/svg" viewBox="0 0 48 48">
  <rect width="48" height="48" rx="10" fill="#071950"/>
  <g transform="translate(6 9.6) scale(0.72)" fill="#ffffff">
    <path d="M14.3633 17.4522C14.2097 16.8379 14.8085 16.3034 15.4014 16.5255L20.084 18.2813C21.2367 18.7136 22 19.8159 22 21.047C21.9999 22.678 20.6779 24.0001 19.0469 24.0001H18.6309C17.0849 24 15.7374 22.948 15.3623 21.4483L14.3633 17.4522Z"/>
    <path d="M34.5986 16.5255C35.1915 16.3034 35.7903 16.8379 35.6367 17.4522L34.6377 21.4483C34.2626 22.948 32.9151 24 31.3691 24.0001H30.9531C29.3221 24.0001 28.0001 22.678 28 21.047C28 19.8159 28.7633 18.7136 29.916 18.2813L34.5986 16.5255Z"/>
    <path clip-rule="evenodd" fill-rule="evenodd" d="M41.5928 0.324304C43.1168 -0.65543 45.0547 0.734588 44.6152 2.49227L42.8604 9.50887C47.2764 14.0176 50 20.1904 50 27.0001V28.1417C50 34.6908 44.6907 40.0001 38.1416 40.0001C35.0982 40 32.1714 38.8297 29.9668 36.7315L25.002 32.0059L20.0322 36.7335C17.8277 38.8303 14.9018 40.0001 11.8594 40.0001C5.30967 40.0001 0 34.6904 0 28.1407V27.0001C1.69261e-05 19.9152 2.9474 13.5189 7.68262 8.96981L6.06348 2.49227C5.62408 0.734675 7.56097 -0.655146 9.08496 0.324304L14.958 4.09969C18.0315 2.75003 21.4281 2.00008 25 2.00008C28.7271 2.00008 32.2631 2.81695 35.4404 4.27938L41.5928 0.324304ZM25 10.0001C15.6112 10.0001 8.00003 17.6113 8 27.0001V28.1407C8 30.2721 9.72795 32.0001 11.8594 32.0001C12.8492 32.0001 13.8012 31.6197 14.5186 30.9376L19.4902 26.2091L25.001 32.004L30.5156 26.21L35.4814 30.9366C36.1987 31.6193 37.1514 32 38.1416 32.0001C40.2724 32.0001 42 30.2725 42 28.1417V27.0001C42 17.6113 34.3888 10.0001 25 10.0001Z"/>
  </g>
</svg>
